
<svg xmlns="http://www.w3.org/2000/svg" version="1.1" xmlns:xlink="http://www.w3.org/1999/xlink" preserveAspectRatio="none" x="0px" y="0px" width="50px" height="50px" viewBox="0 0 50 50">
<defs>
<g id="Layer0_0_FILL">
<path fill="#FFFFFF" stroke="none" d="
M 32.95 10.65
Q 32.95 9.15 31.7 8.7 30.25 8.15 28.1 8.15 25.95 8.15 24.5 8.85 23.05 9.5 22.25 10.6 21.45 11.75 21.15 13.45 20.85 15.1 20.85 17.15
L 20.85 17.7 19 17.7
Q 18.2 17.7 17.65 18.2 17.05 18.85 17.05 19.65 17.05 20.5 17.65 21.05 18.2 21.65 19 21.65
L 20.85 21.65 20.85 38.8
Q 20.85 40 21.7 40.95 22.7 41.85 23.95 41.85 25.15 41.85 26.1 40.95 27.05 40 27.05 38.8
L 27.05 21.65 30.05 21.65
Q 30.85 21.65 31.5 21.05 32.05 20.5 32.05 19.65 32.05 18.85 31.5 18.3 30.85 17.7 30.05 17.7
L 27.05 17.7 27.05 17.15
Q 27.05 14.9 27.85 14.1 28.65 13.2 30.5 13.2 32.05 13.2 32.4 12.5 32.95 11.75 32.95 10.65 Z"/>
</g>

<g id="Layer0_1_FILL">
<path fill="#FFFFFF" stroke="none" d="
M -48.75 56
Q -48.75 55.15 -49.35 54.55 -49.95 53.9 -50.85 53.9 -51.65 53.9 -52.25 54.55 -52.9 55.15 -52.9 56
L -52.9 68.15
Q -52.9 69 -52.25 69.6 -51.65 70.2 -50.85 70.2 -49.95 70.2 -49.35 69.6 -48.75 69 -48.75 68.15
L -48.75 56
M -40.8 54.3
Q -41.4 54.6 -41.8 54.95 -42.3 55.35 -42.5 55.6 -42.5 54.75 -43.1 54.15 -43.7 53.55 -44.6 53.55 -45.45 53.55 -46.05 54.15 -46.7 54.75 -46.7 55.6
L -46.7 68.15
Q -46.7 69 -46.05 69.6 -45.45 70.2 -44.6 70.2 -43.7 70.2 -43.1 69.6 -42.5 69 -42.5 68.15
L -42.5 60
Q -42.5 59.4 -42.3 58.85 -42 58.25 -41.65 57.9 -41.25 57.5 -40.65 57.2 -40.1 57 -39.5 57 -38.85 57 -38.3 57.2 -37.8 57.5 -37.35 57.9 -36.95 58.25 -36.75 58.85 -36.5 59.4 -36.5 60
L -36.5 68.15
Q -36.5 69 -35.85 69.6 -35.25 70.2 -34.4 70.2 -33.5 70.2 -32.9 69.6 -32.3 69 -32.3 68.15
L -32.3 58.65
Q -32.3 57.5 -32.75 56.55 -33.15 55.6 -33.9 54.95 -34.65 54.3 -35.55 53.9 -36.55 53.55 -37.65 53.55 -38.65 53.55 -39.45 53.75 -40.2 54 -40.8 54.3
M -50.9 47.5
Q -51.7 47.5 -52.3 48.1 -52.95 48.7 -52.95 49.55 -52.95 50.45 -52.3 51.05 -51.7 51.65 -50.9 51.65 -50 51.65 -49.4 51.05 -48.8 50.45 -48.8 49.55 -48.8 48.7 -49.4 48.1 -50 47.5 -50.9 47.5 Z"/>
</g>

<path id="Layer0_0_1_STROKES" stroke="#FFFFFF" stroke-width="5" stroke-linejoin="round" stroke-linecap="round" fill="none" d="
M -134.7 -52.05
L -101.85 -52.05 -101.85 -25.05 -134.7 -25.05 -134.7 -52.05 -118.65 -36.9 -101.85 -52.05"/>

<path id="Layer0_0_2_STROKES" stroke="#FFFFFF" stroke-width="2" stroke-linejoin="round" stroke-linecap="round" fill="none" d="
M -70 -41.55
L -55.45 -41.55
M -70 -36.05
L -55.45 -36.05
M -70 -30.95
L -55.45 -30.95
M -70 -46.2
L -63.5 -46.2
M -58.35 -53.7
L -58.35 -47.2 -50.6 -47.2"/>

<path id="Layer0_0_3_STROKES" stroke="#FFFFFF" stroke-width="4" stroke-linejoin="round" stroke-linecap="round" fill="none" d="
M -74.85 -53.7
L -58.35 -53.7 -50.6 -47.2 -50.6 -24.1 -74.85 -24.1 -74.85 -53.7 Z"/>
</defs>

<g transform="matrix( 1, 0, 0, 1, 0,0) ">
<use xlink:href="#Layer0_0_FILL"/>

<use xlink:href="#Layer0_0_1_STROKES"/>

<use xlink:href="#Layer0_0_2_STROKES"/>

<use xlink:href="#Layer0_0_3_STROKES"/>
</g>

<g transform="matrix( 1.4715423583984375, 0, 0, 1.4715423583984375, 52.45,-123.6) ">
<use xlink:href="#Layer0_1_FILL"/>
</g>
</svg>
