
<svg xmlns="http://www.w3.org/2000/svg" version="1.1" xmlns:xlink="http://www.w3.org/1999/xlink" preserveAspectRatio="none" x="0px" y="0px" width="50px" height="50px" viewBox="0 0 50 50">
<defs>
<g id="Layer0_0_FILL">
<path fill="#FFFFFF" stroke="none" d="
M 31.3 -43
Q 32.85 -43 33.2 -43.7 33.75 -44.45 33.75 -45.55 33.75 -47.05 32.5 -47.5 31.05 -48.05 28.9 -48.05 26.75 -48.05 25.3 -47.35 23.85 -46.7 23.05 -45.6 22.25 -44.45 21.95 -42.75 21.65 -41.1 21.65 -39.05
L 21.65 -38.5 19.8 -38.5
Q 19 -38.5 18.45 -38 17.85 -37.35 17.85 -36.55 17.85 -35.7 18.45 -35.15 19 -34.55 19.8 -34.55
L 21.65 -34.55 21.65 -17.4
Q 21.65 -16.2 22.5 -15.25 23.5 -14.35 24.75 -14.35 25.95 -14.35 26.9 -15.25 27.85 -16.2 27.85 -17.4
L 27.85 -34.55 30.85 -34.55
Q 31.65 -34.55 32.3 -35.15 32.85 -35.7 32.85 -36.55 32.85 -37.35 32.3 -37.9 31.65 -38.5 30.85 -38.5
L 27.85 -38.5 27.85 -39.05
Q 27.85 -41.3 28.65 -42.1 29.45 -43 31.3 -43 Z"/>
</g>

<g id="Layer0_1_FILL">
<path fill="#FFFFFF" stroke="none" d="
M -48.75 56
Q -48.75 55.15 -49.35 54.55 -49.95 53.9 -50.85 53.9 -51.65 53.9 -52.25 54.55 -52.9 55.15 -52.9 56
L -52.9 68.15
Q -52.9 69 -52.25 69.6 -51.65 70.2 -50.85 70.2 -49.95 70.2 -49.35 69.6 -48.75 69 -48.75 68.15
L -48.75 56
M -40.8 54.3
Q -41.4 54.6 -41.8 54.95 -42.3 55.35 -42.5 55.6 -42.5 54.75 -43.1 54.15 -43.7 53.55 -44.6 53.55 -45.45 53.55 -46.05 54.15 -46.7 54.75 -46.7 55.6
L -46.7 68.15
Q -46.7 69 -46.05 69.6 -45.45 70.2 -44.6 70.2 -43.7 70.2 -43.1 69.6 -42.5 69 -42.5 68.15
L -42.5 60
Q -42.5 59.4 -42.3 58.85 -42 58.25 -41.65 57.9 -41.25 57.5 -40.65 57.2 -40.1 57 -39.5 57 -38.85 57 -38.3 57.2 -37.8 57.5 -37.35 57.9 -36.95 58.25 -36.75 58.85 -36.5 59.4 -36.5 60
L -36.5 68.15
Q -36.5 69 -35.85 69.6 -35.25 70.2 -34.4 70.2 -33.5 70.2 -32.9 69.6 -32.3 69 -32.3 68.15
L -32.3 58.65
Q -32.3 57.5 -32.75 56.55 -33.15 55.6 -33.9 54.95 -34.65 54.3 -35.55 53.9 -36.55 53.55 -37.65 53.55 -38.65 53.55 -39.45 53.75 -40.2 54 -40.8 54.3
M -50.9 47.5
Q -51.7 47.5 -52.3 48.1 -52.95 48.7 -52.95 49.55 -52.95 50.45 -52.3 51.05 -51.7 51.65 -50.9 51.65 -50 51.65 -49.4 51.05 -48.8 50.45 -48.8 49.55 -48.8 48.7 -49.4 48.1 -50 47.5 -50.9 47.5 Z"/>
</g>

<path id="Layer0_0_1_STROKES" stroke="#FFFFFF" stroke-width="5" stroke-linejoin="round" stroke-linecap="round" fill="none" d="
M -134.7 -52.05
L -101.85 -52.05 -101.85 -25.05 -134.7 -25.05 -134.7 -52.05 -118.65 -36.9 -101.85 -52.05"/>

<path id="Layer0_0_2_STROKES" stroke="#FFFFFF" stroke-width="2" stroke-linejoin="round" stroke-linecap="round" fill="none" d="
M -70 -41.55
L -55.45 -41.55
M -70 -36.05
L -55.45 -36.05
M -70 -30.95
L -55.45 -30.95
M -70 -46.2
L -63.5 -46.2
M -58.35 -53.7
L -58.35 -47.2 -50.6 -47.2"/>

<path id="Layer0_0_3_STROKES" stroke="#FFFFFF" stroke-width="4" stroke-linejoin="round" stroke-linecap="round" fill="none" d="
M -74.85 -53.7
L -58.35 -53.7 -50.6 -47.2 -50.6 -24.1 -74.85 -24.1 -74.85 -53.7 Z"/>
</defs>

<g transform="matrix( 1, 0, 0, 1, 0,0) ">
<use xlink:href="#Layer0_0_FILL"/>

<use xlink:href="#Layer0_0_1_STROKES"/>

<use xlink:href="#Layer0_0_2_STROKES"/>

<use xlink:href="#Layer0_0_3_STROKES"/>
</g>

<g transform="matrix( 1.4715423583984375, 0, 0, 1.4715423583984375, 87.7,-61.6) ">
<use xlink:href="#Layer0_1_FILL"/>
</g>
</svg>
