
<svg xmlns="http://www.w3.org/2000/svg" version="1.1" xmlns:xlink="http://www.w3.org/1999/xlink" preserveAspectRatio="none" x="0px" y="0px" width="50px" height="50px" viewBox="0 0 50 50">
<defs>
<g id="Layer0_0_FILL">
<path fill="#FFFFFF" stroke="none" d="
M 31.3 -43
Q 32.85 -43 33.2 -43.7 33.75 -44.45 33.75 -45.55 33.75 -47.05 32.5 -47.5 31.05 -48.05 28.9 -48.05 26.75 -48.05 25.3 -47.35 23.85 -46.7 23.05 -45.6 22.25 -44.45 21.95 -42.75 21.65 -41.1 21.65 -39.05
L 21.65 -38.5 19.8 -38.5
Q 19 -38.5 18.45 -38 17.85 -37.35 17.85 -36.55 17.85 -35.7 18.45 -35.15 19 -34.55 19.8 -34.55
L 21.65 -34.55 21.65 -17.4
Q 21.65 -16.2 22.5 -15.25 23.5 -14.35 24.75 -14.35 25.95 -14.35 26.9 -15.25 27.85 -16.2 27.85 -17.4
L 27.85 -34.55 30.85 -34.55
Q 31.65 -34.55 32.3 -35.15 32.85 -35.7 32.85 -36.55 32.85 -37.35 32.3 -37.9 31.65 -38.5 30.85 -38.5
L 27.85 -38.5 27.85 -39.05
Q 27.85 -41.3 28.65 -42.1 29.45 -43 31.3 -43 Z"/>
</g>

<g id="Layer0_1_FILL">
<path fill="#FFFFFF" stroke="none" d="
M -48.75 56
Q -48.75 55.15 -49.35 54.55 -49.95 53.9 -50.85 53.9 -51.65 53.9 -52.25 54.55 -52.9 55.15 -52.9 56
L -52.9 68.15
Q -52.9 69 -52.25 69.6 -51.65 70.2 -50.85 70.2 -49.95 70.2 -49.35 69.6 -48.75 69 -48.75 68.15
L -48.75 56
M -40.8 54.3
Q -41.4 54.6 -41.8 54.95 -42.3 55.35 -42.5 55.6 -42.5 54.75 -43.1 54.15 -43.7 53.55 -44.6 53.55 -45.45 53.55 -46.05 54.15 -46.7 54.75 -46.7 55.6
L -46.7 68.15
Q -46.7 69 -46.05 69.6 -45.45 70.2 -44.6 70.2 -43.7 70.2 -43.1 69.6 -42.5 69 -42.5 68.15
L -42.5 60
Q -42.5 59.4 -42.3 58.85 -42 58.25 -41.65 57.9 -41.25 57.5 -40.65 57.2 -40.1 57 -39.5 57 -38.85 57 -38.3 57.2 -37.8 57.5 -37.35 57.9 -36.95 58.25 -36.75 58.85 -36.5 59.4 -36.5 60
L -36.5 68.15
Q -36.5 69 -35.85 69.6 -35.25 70.2 -34.4 70.2 -33.5 70.2 -32.9 69.6 -32.3 69 -32.3 68.15
L -32.3 58.65
Q -32.3 57.5 -32.75 56.55 -33.15 55.6 -33.9 54.95 -34.65 54.3 -35.55 53.9 -36.55 53.55 -37.65 53.55 -38.65 53.55 -39.45 53.75 -40.2 54 -40.8 54.3
M -50.9 47.5
Q -51.7 47.5 -52.3 48.1 -52.95 48.7 -52.95 49.55 -52.95 50.45 -52.3 51.05 -51.7 51.65 -50.9 51.65 -50 51.65 -49.4 51.05 -48.8 50.45 -48.8 49.55 -48.8 48.7 -49.4 48.1 -50 47.5 -50.9 47.5 Z"/>
</g>

<g id="Layer0_2_FILL">
<path fill="#FFFFFF" stroke="none" d="
M -58.35 -55.7
L -74.85 -55.7
Q -75.683984375 -55.70546875 -76.3 -55.15 -76.85546875 -54.533984375 -76.85 -53.7
L -76.85 -24.1
Q -76.85546875 -23.2662109375 -76.3 -22.7 -75.683984375 -22.0947265625 -74.85 -22.1
L -50.6 -22.1
Q -49.7662109375 -22.0947265625 -49.2 -22.7 -48.5947265625 -23.2662109375 -48.6 -24.1
L -48.6 -47.2
Q -48.5939453125 -47.6421875 -48.8 -48.05 -48.96328125 -48.444921875 -49.3 -48.75
L -57.05 -55.25
Q -57.6154296875 -55.6984375 -58.35 -55.7
M -72.85 -51.7
L -59.35 -51.7 -59.35 -47.2
Q -59.346484375 -46.7892578125 -59.05 -46.5 -58.7607421875 -46.203515625 -58.35 -46.2
L -52.6 -46.2 -52.6 -26.1 -72.85 -26.1 -72.85 -51.7
M -54.9 -48.2
L -57.35 -48.2 -57.35 -50.25 -54.9 -48.2
M -62.8 -46.9
Q -63.0892578125 -47.196484375 -63.5 -47.2
L -70 -47.2
Q -70.4107421875 -47.196484375 -70.7 -46.9 -70.996484375 -46.6107421875 -71 -46.2 -70.996484375 -45.7892578125 -70.7 -45.5 -70.4107421875 -45.203515625 -70 -45.2
L -63.5 -45.2
Q -63.0892578125 -45.203515625 -62.8 -45.5 -62.503515625 -45.7892578125 -62.5 -46.2 -62.503515625 -46.6107421875 -62.8 -46.9
M -54.75 -36.75
Q -55.0392578125 -37.046484375 -55.45 -37.05
L -70 -37.05
Q -70.4107421875 -37.046484375 -70.7 -36.75 -70.996484375 -36.4607421875 -71 -36.05 -70.996484375 -35.6392578125 -70.7 -35.35 -70.4107421875 -35.053515625 -70 -35.05
L -55.45 -35.05
Q -55.0392578125 -35.053515625 -54.75 -35.35 -54.453515625 -35.6392578125 -54.45 -36.05 -54.453515625 -36.4607421875 -54.75 -36.75
M -54.75 -31.65
Q -55.0392578125 -31.946484375 -55.45 -31.95
L -70 -31.95
Q -70.4107421875 -31.946484375 -70.7 -31.65 -70.996484375 -31.3607421875 -71 -30.95 -70.996484375 -30.5392578125 -70.7 -30.25 -70.4107421875 -29.953515625 -70 -29.95
L -55.45 -29.95
Q -55.0392578125 -29.953515625 -54.75 -30.25 -54.453515625 -30.5392578125 -54.45 -30.95 -54.453515625 -31.3607421875 -54.75 -31.65
M -54.45 -41.55
Q -54.453515625 -41.9607421875 -54.75 -42.25 -55.0392578125 -42.546484375 -55.45 -42.55
L -70 -42.55
Q -70.4107421875 -42.546484375 -70.7 -42.25 -70.996484375 -41.9607421875 -71 -41.55 -70.996484375 -41.1392578125 -70.7 -40.85 -70.4107421875 -40.553515625 -70 -40.55
L -55.45 -40.55
Q -55.0392578125 -40.553515625 -54.75 -40.85 -54.453515625 -41.1392578125 -54.45 -41.55 Z"/>
</g>

<path id="Layer0_0_1_STROKES" stroke="#FFFFFF" stroke-width="5" stroke-linejoin="round" stroke-linecap="round" fill="none" d="
M -134.7 -52.05
L -101.85 -52.05 -101.85 -25.05 -134.7 -25.05 -134.7 -52.05 -118.65 -36.9 -101.85 -52.05"/>
</defs>

<g transform="matrix( 1, 0, 0, 1, 0,0) ">
<use xlink:href="#Layer0_0_FILL"/>

<use xlink:href="#Layer0_0_1_STROKES"/>
</g>

<g transform="matrix( 1.4715423583984375, 0, 0, 1.4715423583984375, 43.85,-133.15) ">
<use xlink:href="#Layer0_1_FILL"/>
</g>

<g transform="matrix( 1, 0, 0, 1, 87.7,63.9) ">
<use xlink:href="#Layer0_2_FILL"/>
</g>
</svg>
