<?xml version="1.0" encoding="utf-8"?>
<!-- Generator: Adobe Illustrator 19.0.0, SVG Export Plug-In . SVG Version: 6.00 Build 0)  -->
<svg version="1.1" id="Layer_1" xmlns="http://www.w3.org/2000/svg" xmlns:xlink="http://www.w3.org/1999/xlink" x="0px" y="0px"
	 viewBox="-358 197 243 167" style="enable-background:new -358 197 243 167;" xml:space="preserve">
<style type="text/css">
	.st0{fill:#CCCCCC;}
	.st1{fill:#FFFFFF;}
	.st2{fill:#FFA521;}
	.st3{fill:#ED8D00;}
	.st4{fill:none;stroke:#FFA521;stroke-width:71;stroke-linecap:round;stroke-miterlimit:10;}
	.st5{fill:none;stroke:#FFFFFF;stroke-width:22;stroke-linecap:round;stroke-miterlimit:10;}
</style>
<path class="st0" d="M-207.6,251.3c-1.9,1.9-4.1,2.8-6.7,2.8c-2.5,0-4.8-0.9-6.6-2.8c-1.7-1.8-2.6-3.9-2.7-6.4v14.4
	c0,2.6,0.9,4.8,2.7,6.6c1.9,1.9,4.1,2.8,6.6,2.8s4.8-0.9,6.7-2.8c1.8-1.8,2.8-4,2.8-6.6v-14.4C-205,247.4-205.9,249.5-207.6,251.3
	 M-187.8,266c1.9-1.8,2.9-4,2.9-6.6V245c-0.2,2.5-1.1,4.6-2.9,6.4c-1.8,1.9-4,2.8-6.6,2.8c-2.5,0-4.8-0.9-6.7-2.8
	c-1.7-1.8-2.6-3.9-2.8-6.4v14.4c0,2.6,0.9,4.8,2.8,6.6c1.9,1.9,4.1,2.8,6.7,2.8C-191.8,268.8-189.6,267.9-187.8,266 M-167.6,266
	c1.8-1.8,2.8-4,2.8-6.6V245c-0.1,2.5-1,4.6-2.8,6.4c-1.9,1.9-4.1,2.8-6.7,2.8c-2.5,0-4.8-0.9-6.6-2.8c-1.7-1.8-2.6-3.9-2.7-6.4v14.4
	c0,2.6,0.9,4.8,2.7,6.6c1.9,1.9,4.1,2.8,6.6,2.8S-169.6,267.9-167.6,266z"/>
<path class="st1" d="M-223.6,235.1V246c0.1,2.5,1,4.6,2.7,6.4c1.9,1.9,4.1,2.8,6.6,2.8s4.8-0.9,6.7-2.8c1.7-1.8,2.6-3.9,2.8-6.4
	v-10.9c0-2.5-0.9-4.8-2.8-6.7c-1.9-1.8-4.1-2.7-6.7-2.7c-2.5,0-4.8,0.9-6.6,2.7C-222.8,230.3-223.6,232.5-223.6,235.1 M-187.8,228.4
	c-1.8-1.8-4-2.7-6.6-2.7c-2.5,0-4.8,0.9-6.7,2.7c-1.8,1.9-2.8,4.1-2.8,6.7V246c0.1,2.5,1,4.6,2.8,6.4c1.9,1.9,4.1,2.8,6.7,2.8
	c2.6,0,4.8-0.9,6.6-2.8c1.7-1.8,2.7-3.9,2.9-6.4v-10.9C-184.9,232.5-185.9,230.3-187.8,228.4 M-174.3,225.7c-2.5,0-4.8,0.9-6.6,2.7
	c-1.8,1.9-2.7,4.1-2.7,6.7V246c0.1,2.5,1,4.6,2.7,6.4c1.9,1.9,4.1,2.8,6.6,2.8s4.8-0.9,6.7-2.8c1.7-1.8,2.6-3.9,2.8-6.4v-10.9
	c0-2.5-0.9-4.8-2.8-6.7C-169.6,226.6-171.8,225.7-174.3,225.7z"/>
<path class="st2" d="M-271.4,335.2c0.4,0.2,1,0.5,1.4,0.8l0.4-78.3l-56.7,12.9l0.2,46.6l1,0.6c0.3,0,0.8,0,1.3,0.2L-271.4,335.2z"/>
<path class="st3" d="M-271.4,327.6c-0.4-0.3-0.9-0.4-1.3-0.5l-48.8-11.1c-0.5-0.1-0.9-0.1-1.2-0.1c-2.1-0.3-4.1,0.1-5.9,1.3
	c-1.2,0.7-2.2,1.7-3,2.8c-0.6,0.9-1,1.9-1.2,3c-0.5,2.5-0.1,4.8,1.2,7c1.4,2.2,3.3,3.5,5.9,4l48.9,11.2c2.5,0.5,4.8,0.1,6.9-1.2
	c2.2-1.4,3.5-3.3,4-5.8c0.6-2.6,0.3-4.9-1.1-7C-268,329.5-269.5,328.3-271.4,327.6"/>
<path class="st2" d="M-149.4,220.7c-2.7,0.3-4.8,1.3-6.4,3.3c-5.4,6.3-7.7,13.8-7.2,22.4l-0.1-0.4c0.2,7.1,2.3,13.2,6.4,18.6
	c0.1,0.2,0.3,0.4,0.6,0.7l0.1,0.1c0.1,0.1,0.3,0.3,0.4,0.5c1.6,1.7,3.5,2.7,5.9,2.8c2.5,0.2,4.9-0.4,6.9-1.9c2-1.6,3.2-3.7,3.5-6.2
	c0.2-2.6-0.4-4.9-2-6.8c-0.2-0.2-0.3-0.4-0.4-0.6c-1.7-2.2-2.5-4.8-2.6-7.7c-0.1-0.1-0.1-0.1,0-0.1c-0.2-3.5,0.8-6.6,2.8-9.2
	c1.7-2,2.4-4.3,2.2-7c-0.3-2.6-1.4-4.7-3.4-6.4C-144.5,221.2-146.8,220.5-149.4,220.7z"/>
<line class="st4" x1="-321.5" y1="248" x2="-259.3" y2="248"/>
<line class="st5" x1="-257.2" y1="291.9" x2="-278.6" y2="292.6"/>
<line class="st5" x1="-264.5" y1="307.7" x2="-286" y2="307.9"/>
<circle class="st1" cx="-318.3" cy="299" r="19"/>
<line class="st5" x1="-278.6" y1="320.3" x2="-291" y2="319.1"/>
</svg>
